/* XPM */
static char *freeimage[] = {
/* width height num_colors chars_per_pixel */
"64 64 32 1",
/* colors */
"  c #ffffff",
". c #a9cbe5",
"X c #297dbf",
"o c #1c75bc",
"O c #5497cc",
"+ c #f0f6fa",
"@ c #c6dcee",
"# c #7eb1d9",
"$ c #2a7ec0",
"% c #5598cd",
"& c #80b2d9",
"* c #8ebade",
"= c #71a9d5",
"- c #3886c4",
"; c #d5e6f3",
": c #9cc3e2",
"> c #f2f7fb",
", c #e3eef7",
"< c #aacce6",
"1 c #b9d4ea",
"2 c #63a0d1",
"3 c #478fc9",
"4 c #c7ddee",
"5 c #3786c4",
"6 c #6aa4d3",
"7 c #6aa5d3",
"8 c #6da6d4",
"9 c #5f9ed0",
"0 c #458ec8",
"q c #609ed0",
"w c #448ec8",
"e c #70a8d4",
/* pixels */
" .XoooooooooooooooooooooooooooooooooooooooooooooooooooooooooooO+",
"@ooooooooooooooooooooooooooooooooooooooooooooooooooooooooooooooO",
"#ooooooooooooooooooooooooooooooooooooooooooooooooooooooooooooooo",
"Oooooooooooooooooooooooooooooooooooooooooooooooooooooooooooooooo",
"Oooooooooooooooooooooooooooooooooooooooooooooooooooooooooooooooo",
"Oooooooooooooooooooooooooooooooooooooooooooooooooooooooooooooooo",
"Oooooooooooooooooooooooooooooooooooooooooooooooooooooooooooooooo",
"Ooooooooooooooooooooooooooooooo$%&****=-oooooooooooooooooooooooo",
"Oooooooooooooooooooooooooooo-*;         ;=$ooooooooooooooooooooo",
"Oooooooooooooooooooooooooo$:              >*$ooooooooooooooooooo",
"Ooooooooooooooooooooooooo-;        ,<*&%**1>,2oooooooooooooooooo",
"Oooooooooooooooooooooooo$;      >:33&*14:*2$3<*ooooooooooooooooo",
"Oooooooooooooooooooooooo1      :5&,         ;&53oooooooooooooooo",
"Ooooooooooooooooooooooo%     ,32>             >*$ooooooooooooooo",
"Ooooooo%1>;444444444444>    4$<                 >2oooooooooooooo",
"Oooooo=4%ooooooooooooooooooooooooo%%*<,           <$oooooooooooo",
"Oooooo131                     >&3   >4*6&,         ;$ooooooooooo",
"Ooooo-6>                        o;      >:74        ;$oooooooooo",
"Oooooo1                         o<         :8,       ;$ooooooooo",
"Oooooo*&                       <--%4        ,9<       ;ooooooooo",
"Ooooo$1                       ;5> <-2,        =&       :oooooooo",
"Ooooo&                    ,4<=o*    :5<        <=       %ooooooo",
"Ooooo*                    1$&;;5;    >%=        =*      ,$oooooo",
"Ooooo3                     $   43      &=        %1      *oooooo",
"Oooooo,                    o    %<      <=       >5>     >$ooooo",
"Oooooo*><2%%%:>            o    13       =:       :=      =ooooo",
"Oooooo--oooooo2            -     $>      >0,       -,     ;ooooo",
"Oooooo&:oooooo=           1&     %4       <=       <=      -oooo",
"Oooooo; 42$o-*>           q,     %:        ->      >$>     =oooo",
"Oooooo                   <*      %*        =1       =<     :oooo",
"Oooooo                  <2       %4        :*       1=     4oooo",
"Oooooo;               ,&3>       $;        4*       >-     4oooo",
"Oooooo<   >41********2o2>       ;$         4*        -     4oooo",
"Oooooo- ,2oooooooooooo*         :=         :*        %4    4oooo",
"Ooooooo*$ooooooooooo-4          -4         &4        24    4oooo",
"Oooooooooooooooooo$*>          <-          3>        *4    1oooo",
"Ooooooooooooooooo2,            -4         ,2         *4    &oooo",
"Ooooooooooooooo$1             :%          *1         =4    3oooo",
"Oooooooooooooo%>             ,5,         >w          %4   ,ooooo",
"Ooooooooooooo=               3:          *1          3    *ooooo",
"Oooooooooooooooooooooooooooooooooooooooooooooooooooooooooooooooo",
"Ooooooooooo3;        ;o2;       ,%&         >&-          <oooooo",
"Oooooooooo$>        >$->   &o;   1$    :o4   4o;   ;o*    oooooo",
"Oooooooooo=    *oooooo*    $$    *=    %o>   1$    *o1   >oooooo",
"Oooooooooo<    <****-o4   ;o=    %<    o3    ==    %o>   1oooooo",
"Oooooooooo4         ,$    :o%****o,   1o&    -<    o3    =oooooo",
"Oooooooooo*         ,2    2=4444*-    *o;   ;o,   4o*   >-oooooo",
"Ooooooooooo-%%%=    <:    o-    &&         1--         ;%ooooooo",
"Oooooooooo3%%%%<    2;   4o&    31   >$oooooo&    :    3oooooooo",
"Ooooooooo%         ;o,   4*;   >o>   1ooooooo1   >o>   <oooooooo",
"Ooooooooo144444441&$o3<44444444*$44442ooooooo:444*o=4441oooooooo",
"Oooooooooooooooooooooooooooooooooooooooooooooooooooooooooooooooo",
"Oooooooooooooooooooooooooooooooooooooooooooooooooooooooooooooooo",
"Oooooooooooooooooooooooooooooooooooooooooooooooooooooooooooooooo",
"Oooooooooooooooooooooooooooooooooooooooooooooooooooooooooooooooo",
"Oooooooooooooooooooooooooooooooooooooooooooooooooooooooooooooooo",
"Oooooooooooooooooooooooooooooooooooooooooooooooooooooooooooooooo",
"Oooooooooooooooooooooooooooooooooooooooooooooooooooooooooooooooo",
"Oooooooooooooooooooooooooooooooooooooooooooooooooooooooooooooooo",
"Oooooooooooooooooooooooooooooooooooooooooooooooooooooooooooooooo",
"Oooooooooooooooooooooooooooooooooooooooooooooooooooooooooooooooo",
"eooooooooooooooooooooooooooooooooooooooooooooooooooooooooooooooo",
"@ooooooooooooooooooooooooooooooooooooooooooooooooooooooooooooooO",
" .XoooooooooooooooooooooooooooooooooooooooooooooooooooooooooooO+"
};
