/* XPM */
static char *freeimage[] = {
/* width height num_colors chars_per_pixel */
"16 16 43 1",
/* colors */
"  c #458ec8",
". c #1c75bc",
"X c #297dbf",
"o c #2a7ec0",
"O c #5598cd",
"+ c #478fc9",
"@ c #9cc3e2",
"# c #ffffff",
"$ c #f2f7fb",
"% c #d5e6f3",
"& c #aacce6",
"* c #63a0d1",
"= c #c7ddee",
"- c #afcee7",
"; c #e9f2f9",
": c #f4f8fc",
"> c #80b2d9",
", c #75abd7",
"< c #f3f8fb",
"1 c #dae9f5",
"2 c #d3e4f2",
"3 c #f4f9fc",
"4 c #e7f0f8",
"5 c #afcee8",
"6 c #cee1f1",
"7 c #ddebf5",
"8 c #8ebade",
"9 c #c5dcee",
"0 c #e9f1f8",
"q c #c7ddef",
"w c #e0ecf6",
"e c #6aa5d3",
"r c #c1daed",
"t c #d8e8f4",
"y c #e3eef7",
"u c #8ab8dd",
"i c #b9d4ea",
"p c #a6c9e5",
"a c #9ec4e2",
"s c #71a9d5",
"d c #cadff0",
"f c #a2c7e4",
"g c #b0cfe8",
/* pixels */
" ..............X",
".......oO+......",
"......@#$%&O....",
"..*OO*=-;##:>...",
".,<####%1#23#@..",
".@####45#6#$7#O.",
".88=##4#9#6#0#%.",
".8$$##2#q####w#.",
".*>Oer##7####q#.",
"...*$##t##2##qy.",
"..*=8u=ip=&a=&s.",
"..>##dy#9%#ry$>.",
"..8==fi=g>.@&=..",
"................",
"................",
" ..............X"
};
