/* XPM */
static char *freeimage[] = {
/* width height num_colors chars_per_pixel */
"32 32 45 1",
/* colors */
"  c #d4e5f2",
". c #297dbf",
"X c #1c75bc",
"o c #a9cbe5",
"O c #2a7ec0",
"+ c #5598cd",
"@ c #478fc9",
"# c #c7ddee",
"$ c #ffffff",
"% c #e3eef7",
"& c #8ebade",
"* c #71a9d5",
"= c #f2f7fb",
"- c #b5d2e9",
"; c #8ab8dd",
": c #aacbe6",
"> c #80b2da",
", c #a3c7e4",
"< c #b9d4ea",
"1 c #3886c4",
"2 c #cbdfef",
"3 c #9cc3e2",
"4 c #aacce6",
"5 c #63a0d1",
"6 c #80b2d9",
"7 c #d5e6f3",
"8 c #a6c9e5",
"9 c #cadfef",
"0 c #afcfe7",
"q c #e5eff8",
"w c #6aa5d3",
"e c #b8d4ea",
"r c #a0c5e3",
"t c #bad5eb",
"y c #afcee7",
"u c #9ec4e2",
"i c #cee1f0",
"p c #bdd7eb",
"a c #98c0e0",
"s c #98c0e1",
"d c #a2c7e4",
"f c #d8e8f4",
"g c #6da6d4",
"h c #a8cae5",
"j c #8cb9dd",
/* pixels */
" .XXXXXXXXXXXXXXXXXXXXXXXXXXXXXo",
".XXXXXXXXXXXXXXXXXXXXXXXXXXXXXXX",
"XXXXXXXXXXXXXXXXXXXXXXXXXXXXXXXX",
"XXXXXXXXXXXXXXXO+++@XXXXXXXXXXXX",
"XXXXXXXXXXXXX+#$$$$$%&OXXXXXXXXX",
"XXXXXXXXXXXX*$$$=-;:>,<@XXXXXXXX",
"XXXXXXXXXXX1=$$,2$$$$$%3OXXXXXXX",
"XXX34&&&&&&&&&56,#7$$$$$%+XXXXXX",
"XXO8$$$$$$$$$$$=<$$90q$$$$*XXXXX",
"XXX=$$$$$$$$$$$=w%$$$=e=$$$5XXXX",
"XX@$$$$$$$$$$$7;$#r=$$$t=$$=1XXX",
"XX+$$$$$$$$$$3%77$$y=$$$y=$$#XXX",
"XXX==#7$$$$$$&$$u$$$t=$$$r$$$@XX",
"XXX4XXX#$$$$$,$$4$$$$r$$$#%$$3XX",
"XXX$%3#$$$$$=i$$#7$$$p$$$$a$$7XX",
"XXX$$$$$$$$%s$$$<$$$$=#$$$,$$$XX",
"XXX#%&5++++3$$$$s$$$$=#$$$<$$$XX",
"XXX@OXXXX+7$$$$=d$$$$#$$$$#$$$XX",
"XXXXXXXO3$$$$$$3$$$$$0$$$$#$$#XX",
"XXXXXX@%$$$$$$72$$$$=f$$$$#$$6XX",
"XXXXXO&&&&&1&&&&*6&&&&65&&&&&XXX",
"XXXXX<$%&&5<$#3$%<$7&$=3$%*$$XXX",
"XXXXX=$=##g$$63#&=$&#$<7$44$%XXX",
"XXXXX&#7$$h$$*$$j$$4$$g$$#=$*XXX",
"XXXX1##7$$3$=&$$3$$OXX*$$#$7XXXX",
"XXXX+&&&&@O6&&&65&*XXX+&6@&&XXXX",
"XXXXXXXXXXXXXXXXXXXXXXXXXXXXXXXX",
"XXXXXXXXXXXXXXXXXXXXXXXXXXXXXXXX",
"XXXXXXXXXXXXXXXXXXXXXXXXXXXXXXXX",
"XXXXXXXXXXXXXXXXXXXXXXXXXXXXXXXX",
".XXXXXXXXXXXXXXXXXXXXXXXXXXXXXXX",
" .XXXXXXXXXXXXXXXXXXXXXXXXXXXXXo"
};
