/* XPM */
static char *freeimage[] = {
/* width height num_colors chars_per_pixel */
"128 128 22 1",
/* colors */
"  c #ffffff",
". c #e2edf6",
"X c #70a8d4",
"o c #1c75bc",
"O c #297dbf",
"+ c #c6dcee",
"@ c #d4e5f2",
"# c #3886c4",
"$ c #5598cd",
"% c #8ebade",
"& c #9cc3e2",
"* c #c7ddee",
"= c #d5e6f3",
"- c #f2f7fb",
"; c #b9d4ea",
": c #80b2d9",
"> c #478fc9",
", c #2a7ec0",
"< c #71a9d5",
"1 c #aacce6",
"2 c #e3eef7",
"3 c #63a0d1",
/* pixels */
"   .XooooooooooooooooooooooooooooooooooooooooooooooooooooooooooooooooooooooooooooooooooooooooooooooooooooooooooooooooooooooOX.  ",
"  +OoooooooooooooooooooooooooooooooooooooooooooooooooooooooooooooooooooooooooooooooooooooooooooooooooooooooooooooooooooooooooO@ ",
" .OoooooooooooooooooooooooooooooooooooooooooooooooooooooooooooooooooooooooooooooooooooooooooooooooooooooooooooooooooooooooooooO.",
" XoooooooooooooooooooooooooooooooooooooooooooooooooooooooooooooooooooooooooooooooooooooooooooooooooooooooooooooooooooooooooooooX",
" OoooooooooooooooooooooooooooooooooooooooooooooooooooooooooooooooooooooooooooooooooooooooooooooooooooooooooooooooooooooooooooooO",
".ooooooooooooooooooooooooooooooooooooooooooooooooooooooooooooooooooooooooooooooooooooooooooooooooooooooooooooooooooooooooooooooo",
"+ooooooooooooooooooooooooooooooooooooooooooooooooooooooooooooooooooooooooooooooooooooooooooooooooooooooooooooooooooooooooooooooo",
"+ooooooooooooooooooooooooooooooooooooooooooooooooooooooooooooooooooooooooooooooooooooooooooooooooooooooooooooooooooooooooooooooo",
"+ooooooooooooooooooooooooooooooooooooooooooooooooooooooooooooooooooooooooooooooooooooooooooooooooooooooooooooooooooooooooooooooo",
"+ooooooooooooooooooooooooooooooooooooooooooooooooooooooooooooooooooooooooooooooooooooooooooooooooooooooooooooooooooooooooooooooo",
"+ooooooooooooooooooooooooooooooooooooooooooooooooooooooooooooooooooooooooooooooooooooooooooooooooooooooooooooooooooooooooooooooo",
"+ooooooooooooooooooooooooooooooooooooooooooooooooooooooooooooooooooooooooooooooooooooooooooooooooooooooooooooooooooooooooooooooo",
"+ooooooooooooooooooooooooooooooooooooooooooooooooooooooooooooooooooooooooooooooooooooooooooooooooooooooooooooooooooooooooooooooo",
"+ooooooooooooooooooooooooooooooooooooooooooooooooooooooooooooooooooooooooooooooooooooooooooooooooooooooooooooooooooooooooooooooo",
"+ooooooooooooooooooooooooooooooooooooooooooooooooooooooooooooooooooooooooooooooooooooooooooooooooooooooooooooooooooooooooooooooo",
"+oooooooooooooooooooooooooooooooooooooooooooooooooooooooooooooo#$%&**=   -**;:>ooooooooooooooooooooooooooooooooooooooooooooooooo",
"+oooooooooooooooooooooooooooooooooooooooooooooooooooooooooo,<12                2&>oooooooooooooooooooooooooooooooooooooooooooooo",
"+oooooooooooooooooooooooooooooooooooooooooooooooooooooooo$1                       2:,ooooooooooooooooooooooooooooooooooooooooooo",
"+oooooooooooooooooooooooooooooooooooooooooooooooooooooo$*                           -1#ooooooooooooooooooooooooooooooooooooooooo",
"+oooooooooooooooooooooooooooooooooooooooooooooooooooo,&                               -%,ooooooooooooooooooooooooooooooooooooooo",
"+ooooooooooooooooooooooooooooooooooooooooooooooooooo>2                    2**&%%;**     -<oooooooooooooooooooooooooooooooooooooo",
"+oooooooooooooooooooooooooooooooooooooooooooooooooo$-                 *%$ooooooooooo#3&=  *#oooooooooooooooooooooooooooooooooooo",
"+ooooooooooooooooooooooooooooooooooooooooooooooooo>                *<,oooooo,$$$,ooooooo#:=-3ooooooooooooooooooooooooooooooooooo",
"+oooooooooooooooooooooooooooooooooooooooooooooooo#-              1#ooo,3&*-       -*&<#oooo$1&oooooooooooooooooooooooooooooooooo",
"+oooooooooooooooooooooooooooooooooooooooooooooooo=             1#oo,<;                 2&$ooo#<ooooooooooooooooooooooooooooooooo",
"+ooooooooooooooooooooooooooooooooooooooooooooooo%            =$oo,%-                      2%,ooooooooooooooooooooooooooooooooooo",
"+oooooooooooooooooooooooooooooooooooooooooooooo,-           %ooo%-                           1#ooooooooooooooooooooooooooooooooo",
"+oooooooooooooooooooooooooooooooooooooooooooooo%          -$oo>=                               &,ooooooooooooooooooooooooooooooo",
"+ooooooooooooooo#:1****************************-         =,oo%                                  -:oooooooooooooooooooooooooooooo",
"+ooooooooooooo,1  2*&%%%%%%%%%%%%%%%%%%%%%%%%%&*********&,oo1                                     *#oooooooooooooooooooooooooooo",
"+oooooooooooo>--%#oooooooooooooooooooooooooooooooooooooooooooooooooo$$<%;=                         -<ooooooooooooooooooooooooooo",
"+ooooooooooo,-1,ooooooooooooooooooooooooooooooooooooooooooooooooooooooooooo$:;-                      1,ooooooooooooooooooooooooo",
"+ooooooooooo&1oo,<1=                                        =1#oo1     2*&:$ooo31-                    =,oooooooooooooooooooooooo",
"+ooooooooooo=,o:-                                             -$oo2          =%>oo3;                   ->ooooooooooooooooooooooo",
"+oooooooooo,:o1                                                =oo&             2&#o#1-                 ->oooooooooooooooooooooo",
"+oooooooooo##%                                                  oo3                ;$o,1                 ->ooooooooooooooooooooo",
"+ooooooooooo,-                                                 -oo<                  *$o#*                ->oooooooooooooooooooo",
"+ooooooooooo<                                                  ;oo#%-                  1,o3-               ->ooooooooooooooooooo",
"+ooooooooooo%-&>*                                              $oooo,%-                 -3o,;               2,oooooooooooooooooo",
"+ooooooooooo#,o>=                                             *oo3$ooo,&                  ;,o:               =oooooooooooooooooo",
"+ooooooooooo#1-                                              -#o>  2<ooo#*                 =>o3-              &ooooooooooooooooo",
"+oooooooooo>-                                               *#o,=    2<ooo3-                ->o>-              3oooooooooooooooo",
"+oooooooooo;                                             -;$oo,=       2$oo,;                -<o>-             -,ooooooooooooooo",
"+oooooooooo2                                        *3$$>oooooo1         ;#oo:                 <o>-             ;ooooooooooooooo",
"+oooooooooo2                                         #ooooo$2>oo=         -:oo>-               ->o>-             3oooooooooooooo",
"+oooooooooo*                                         :o,:&=  ->o#-          ;,o,=               ->o<             2,ooooooooooooo",
"+oooooooooo%                                         ;o,      =,o:           2>o,=               =,o&             %ooooooooooooo",
"+oooooooooo#                                         2oo2      &oo=           -3o,=               ;oo=            -,oooooooooooo",
"+ooooooooooo=                                         oo*       #o3             <o,=               <o#-            %oooooooooooo",
"+ooooooooooo<                                         oo*       ;oo2             <o,-              -,o%            -,ooooooooooo",
"+ooooooooooo,    21%%%%%%%*-                          oo*        #o:             ->o$               ;oo2            <ooooooooooo",
"+oooooooooooo1 1>oooooooooo,%                         oo*        :o#              -,o%               $o$            2ooooooooooo",
"+oooooooooooo>>oooooooooooooo1                       2oo         =oo=              ;o,2              *oo*            >oooooooooo",
"+oooooooooooo,,oooooooooooooo$                       ;o>          ,o&               3o<               <o$            &oooooooooo",
"+oooooooooooo%%oooooooooooooo3                       <o&          $o<               2oo2              =oo=           2oooooooooo",
"+oooooooooooo- $ooooooooooooo=                       ,o2          <o$                <o<               $o<            >ooooooooo",
"+ooooooooooo3   %,ooooooooo,;                       1o<           %o,                2oo-              1oo-           :ooooooooo",
"+ooooooooooo%    -&3#oooo>&-                       -,,2           %oo                 >o1               ,o1           ;ooooooooo",
"+ooooooooooo*                                      <o%            %oo                 %o<               <o3           2ooooooooo",
"+ooooooooooo*                                     1o>             %oo                 *o#               ;oo-           ,oooooooo",
"+ooooooooooo*                                    1o,2             :o>                  oo                ,o;           $oooooooo",
"+ooooooooooo*                                   &oo=              $o$                  ,o*               3o:           3oooooooo",
"+ooooooooooo;                                 23oo1               ,o:                  $o*               &o>           %oooooooo",
"+ooooooooooo:                               2%,oo1               2oo&                  $o*               *oo           %oooooooo",
"+ooooooooooo>                            *&3oooo1                1oo=                  $o*                oo=          %oooooooo",
"+oooooooooooo=      =&<$$,oooooooooooooooooooo,=                 <o,                   $o*                >o;          %oooooooo",
"+oooooooooooo<    1#ooooooooooooooooooooooooo>2                  ,o<                   #o=                $o%          %oooooooo",
"+ooooooooooooo2 -$oooooooooooooooooooooooooo<-                  ;oo;                   oo                 %o%          %oooooooo",
"+ooooooooooooo3 >ooooooooooooooooooooooooo,;                    3o#                   =o#                 %o3          %oooooooo",
"+oooooooooooooo3ooooooooooooooooooooooooo3-                    2oo%                   1o<                 &o$          <oooooooo",
"+oooooooooooooooooooooooooooooooooooooo#;                      <oo-                   <o1                 *o$          $oooooooo",
"+oooooooooooooooooooooooooooooooooooo,%                       2oo<                    #o2                 *o$          ,oooooooo",
"+ooooooooooooooooooooooooooooooooooo<-                        <o,2                   *o>                  *o$         2ooooooooo",
"+ooooooooooooooooooooooooooooooooo>=                         =oo%                    <o1                  *o$         1ooooooooo",
"+oooooooooooooooooooooooooooooooo%                           $o#-                   -,,-                  ;o$         <ooooooooo",
"+oooooooooooooooooooooooooooooo>=                           &oo;                    %o<                   %o3         #ooooooooo",
"+ooooooooooooooooooooooooooooo:                            -,o3                     #o2                   %o%        *oooooooooo",
"+ooooooooooooooooooooooooooo,;                             $o,-                    %o<                    <o%        <oooooooooo",
"+oooooooooooooooooooooooooo>2                             &oo;                    -,,2                    $o*       -,oooooooooo",
"+ooooooooooooooooooooooooo,;*****************************;oo$*********************<o3*********************,o1*******:ooooooooooo",
"+ooooooooooooooooooooooooooooooooooooooooooooooooooooooooooooooooooooooooooooooooooooooooooooooooooooooooooooooooooooooooooooooo",
"+ooooooooooooooooooooooooooooooooooooooooooooooooooooooooooooooooooooooooooooooooooooooooooooooooooooooooooooooooooooooooooooooo",
"+ooooooooooooooooooooooo<*                 2ooo,&2              -1,o,-                   =$oo:                   -1,oooooooooooo",
"+ooooooooooooooooooooo,=                  =,oo>-                  1oo$                    -,oo*                    %oooooooooooo",
"+ooooooooooooooooooooo*                   >oo,-       *,oo<        #oo-        >oo#        :oo:        ;ooo1       -oooooooooooo",
"+oooooooooooooooooooo>         2*********<ooo:        <ooo&        $o>        ;ooo3        %oo1        $ooo=        oooooooooooo",
"+oooooooooooooooooooo:        -oooooooooooooo*        #ooo=        oo:        :ooo1        3oo2        ooo,        =oooooooooooo",
"+oooooooooooooooooooo;        ;oooooooooooooo        2ooo#        *oo;        >ooo2        ,o#        *ooo3        &oooooooooooo",
"+oooooooooooooooooooo-        %ooooooooooooo$        1ooo:        :oo-       -ooo#        *oo:        :ooo&        3oooooooooooo",
"+ooooooooooooooooooo>                  -%ooo%        <ooo*        >o>        ;ooo<        %oo;        >ooo2        ,oooooooooooo",
"+ooooooooooooooooooo:                    $oo=        ,ooo*       *oo%        :ooo1        $oo-       -ooo#        *ooooooooooooo",
"+ooooooooooooooooooo%                    ;o,        =ooooooooooooooo*        #ooo2        oo>        ;ooo<        %ooooooooooooo",
"+ooooooooooooooooooo#                    ;o3        &o#*********;,oo        2ooo>        ;oo%        :ooo1        >ooooooooooooo",
"+oooooooooooooooooooo&                   :o&        3oo1         #o$        ;ooo%        3oo*        >oo,2       &oooooooooooooo",
"+ooooooooooooooooooooo#$$$$$$$$3         >o=        oooo        2oo&                    :ooo                    ;ooooooooooooooo",
"+oooooooooooooooooooooooooooooo<        -o#        *ooo3        1oo=                  ;$ooo$                  *<oooooooooooooooo",
"+oooooooooooooooooooooooooooooo;        1o<        %ooo&        <o,        2#oooooooooooooo&        %;       -,ooooooooooooooooo",
"+ooooooooooooooooooo,$$$$$$$$$:-        <o1        $ooo=        ,o3        &ooooooooooooooo=        ,>        <ooooooooooooooooo",
"+ooooooooooooooooooo=                  -,o;       -ooo,        =oo1        3oooooooooooooo,        =oo2       2ooooooooooooooooo",
"+oooooooooooooooooo&                   <oo$        ***-        &oo2        ,oooooooooooooo3        &oo%        3oooooooooooooooo",
"+ooooooooooooooooo&                  *>oooo&                   $o#        *ooooooooooooooo%        $oo#        ;oooooooooooooooo",
"+ooooooooooooooooo$$$$$$$$$$$$$$$$$$,ooooooo,$$$$$$$$$$$$$$$$$>ooo>$$$$$$$,ooooooooooooooo,$$$$$$$>oooo#$$$$$$$#oooooooooooooooo",
"+ooooooooooooooooooooooooooooooooooooooooooooooooooooooooooooooooooooooooooooooooooooooooooooooooooooooooooooooooooooooooooooooo",
"+ooooooooooooooooooooooooooooooooooooooooooooooooooooooooooooooooooooooooooooooooooooooooooooooooooooooooooooooooooooooooooooooo",
"+ooooooooooooooooooooooooooooooooooooooooooooooooooooooooooooooooooooooooooooooooooooooooooooooooooooooooooooooooooooooooooooooo",
"+ooooooooooooooooooooooooooooooooooooooooooooooooooooooooooooooooooooooooooooooooooooooooooooooooooooooooooooooooooooooooooooooo",
"+ooooooooooooooooooooooooooooooooooooooooooooooooooooooooooooooooooooooooooooooooooooooooooooooooooooooooooooooooooooooooooooooo",
"+ooooooooooooooooooooooooooooooooooooooooooooooooooooooooooooooooooooooooooooooooooooooooooooooooooooooooooooooooooooooooooooooo",
"+ooooooooooooooooooooooooooooooooooooooooooooooooooooooooooooooooooooooooooooooooooooooooooooooooooooooooooooooooooooooooooooooo",
"+ooooooooooooooooooooooooooooooooooooooooooooooooooooooooooooooooooooooooooooooooooooooooooooooooooooooooooooooooooooooooooooooo",
"+ooooooooooooooooooooooooooooooooooooooooooooooooooooooooooooooooooooooooooooooooooooooooooooooooooooooooooooooooooooooooooooooo",
"+ooooooooooooooooooooooooooooooooooooooooooooooooooooooooooooooooooooooooooooooooooooooooooooooooooooooooooooooooooooooooooooooo",
"+ooooooooooooooooooooooooooooooooooooooooooooooooooooooooooooooooooooooooooooooooooooooooooooooooooooooooooooooooooooooooooooooo",
"+ooooooooooooooooooooooooooooooooooooooooooooooooooooooooooooooooooooooooooooooooooooooooooooooooooooooooooooooooooooooooooooooo",
"+ooooooooooooooooooooooooooooooooooooooooooooooooooooooooooooooooooooooooooooooooooooooooooooooooooooooooooooooooooooooooooooooo",
"+ooooooooooooooooooooooooooooooooooooooooooooooooooooooooooooooooooooooooooooooooooooooooooooooooooooooooooooooooooooooooooooooo",
"+ooooooooooooooooooooooooooooooooooooooooooooooooooooooooooooooooooooooooooooooooooooooooooooooooooooooooooooooooooooooooooooooo",
"+ooooooooooooooooooooooooooooooooooooooooooooooooooooooooooooooooooooooooooooooooooooooooooooooooooooooooooooooooooooooooooooooo",
"+ooooooooooooooooooooooooooooooooooooooooooooooooooooooooooooooooooooooooooooooooooooooooooooooooooooooooooooooooooooooooooooooo",
"+ooooooooooooooooooooooooooooooooooooooooooooooooooooooooooooooooooooooooooooooooooooooooooooooooooooooooooooooooooooooooooooooo",
"+ooooooooooooooooooooooooooooooooooooooooooooooooooooooooooooooooooooooooooooooooooooooooooooooooooooooooooooooooooooooooooooooo",
"+ooooooooooooooooooooooooooooooooooooooooooooooooooooooooooooooooooooooooooooooooooooooooooooooooooooooooooooooooooooooooooooooo",
".ooooooooooooooooooooooooooooooooooooooooooooooooooooooooooooooooooooooooooooooooooooooooooooooooooooooooooooooooooooooooooooooo",
" ooooooooooooooooooooooooooooooooooooooooooooooooooooooooooooooooooooooooooooooooooooooooooooooooooooooooooooooooooooooooooooooO",
" XoooooooooooooooooooooooooooooooooooooooooooooooooooooooooooooooooooooooooooooooooooooooooooooooooooooooooooooooooooooooooooooX",
" .OoooooooooooooooooooooooooooooooooooooooooooooooooooooooooooooooooooooooooooooooooooooooooooooooooooooooooooooooooooooooooooO.",
"  +OoooooooooooooooooooooooooooooooooooooooooooooooooooooooooooooooooooooooooooooooooooooooooooooooooooooooooooooooooooooooooO@ ",
"   .XoooooooooooooooooooooooooooooooooooooooooooooooooooooooooooooooooooooooooooooooooooooooooooooooooooooooooooooooooooooooX.  "
};
